<svg width="1141" height="835" viewBox="0 0 1141 835" fill="none" xmlns="http://www.w3.org/2000/svg">
<path d="M1069.4 90.8741L1050.13 71.5963C954.664 -23.8654 800.072 -23.8654 704.795 71.5963L570.407 205.984L436.019 71.5963C340.558 -23.8654 185.965 -23.8654 90.6887 71.5963L71.5963 90.8741C-23.8654 186.336 -23.8654 340.928 71.5963 436.205L397.835 762.443C493.296 857.905 647.889 857.905 743.165 762.443L1069.4 436.205C1164.87 340.928 1164.87 186.336 1069.4 90.8741ZM1001.75 368.733L675.508 694.971C617.675 752.804 523.511 752.804 465.492 694.971L139.254 368.733C81.4206 310.9 81.4206 216.735 139.254 158.717L158.531 139.439C216.365 81.6059 310.529 81.6059 368.547 139.439C368.547 139.439 555.764 326.841 570.593 341.484L772.638 139.439C830.471 81.6059 924.635 81.6059 982.654 139.439L1001.93 158.717C1059.58 216.55 1059.58 310.714 1001.75 368.733Z" fill="white" fill-opacity="0.05"/>
</svg>
