<svg width="69" height="68" viewBox="0 0 69 68" fill="none" xmlns="http://www.w3.org/2000/svg">
<path d="M59.8333 28.3334H51.3333V62.3334H65.4999V34C65.4999 30.8704 62.9629 28.3334 59.8333 28.3334Z" fill="#D28DB9"/>
<mask id="path-2-inside-1_181_213" fill="white">
<path d="M51.3333 34.5C51.3333 34.2239 51.5571 34 51.8333 34H59.3333C59.6094 34 59.8333 34.2239 59.8333 34.5V39.1667C59.8333 39.4428 59.6094 39.6667 59.3333 39.6667H51.8333C51.5571 39.6667 51.3333 39.4428 51.3333 39.1667V34.5Z"/>
</mask>
<path d="M51.3333 34.5C51.3333 34.2239 51.5571 34 51.8333 34H59.3333C59.6094 34 59.8333 34.2239 59.8333 34.5V39.1667C59.8333 39.4428 59.6094 39.6667 59.3333 39.6667H51.8333C51.5571 39.6667 51.3333 39.4428 51.3333 39.1667V34.5Z" fill="white"/>
<path d="M51.3333 34H59.8333H51.3333ZM59.8333 39.6667H51.3333H59.8333ZM51.8333 39.6667C50.4525 39.6667 49.3333 38.5474 49.3333 37.1667V36.5C49.3333 35.1193 50.4525 34 51.8333 34H53.3333C53.3333 34 53.3333 34.2239 53.3333 34.5V39.1667C53.3333 39.4428 53.3333 39.6667 53.3333 39.6667H51.8333ZM59.8333 34V39.6667V34Z" fill="#D28DB9" mask="url(#path-2-inside-1_181_213)"/>
<mask id="path-4-inside-2_181_213" fill="white">
<path d="M51.3333 45.8334C51.3333 45.5572 51.5571 45.3334 51.8333 45.3334H59.3333C59.6094 45.3334 59.8333 45.5572 59.8333 45.8334V50.5C59.8333 50.7762 59.6094 51 59.3333 51H51.8333C51.5571 51 51.3333 50.7762 51.3333 50.5V45.8334Z"/>
</mask>
<path d="M51.3333 45.8334C51.3333 45.5572 51.5571 45.3334 51.8333 45.3334H59.3333C59.6094 45.3334 59.8333 45.5572 59.8333 45.8334V50.5C59.8333 50.7762 59.6094 51 59.3333 51H51.8333C51.5571 51 51.3333 50.7762 51.3333 50.5V45.8334Z" fill="white"/>
<path d="M51.3333 45.3334H59.8333H51.3333ZM59.8333 51H51.3333H59.8333ZM51.8333 51C50.4525 51 49.3333 49.8808 49.3333 48.5V47.8334C49.3333 46.4527 50.4525 45.3334 51.8333 45.3334H53.3333C53.3333 45.3334 53.3333 45.5572 53.3333 45.8334V50.5C53.3333 50.7762 53.3333 51 53.3333 51H51.8333ZM59.8333 45.3334V51V45.3334Z" fill="#D28DB9" mask="url(#path-4-inside-2_181_213)"/>
<path d="M8.83325 28.3334H17.3333V62.3334H3.16658V34C3.16658 30.8704 5.70364 28.3334 8.83325 28.3334Z" fill="#D28DB9"/>
<mask id="path-7-inside-3_181_213" fill="white">
<path d="M17.3333 34.5C17.3333 34.2239 17.1094 34 16.8333 34H9.33325C9.05711 34 8.83325 34.2239 8.83325 34.5V39.1667C8.83325 39.4428 9.05711 39.6667 9.33325 39.6667H16.8333C17.1094 39.6667 17.3333 39.4428 17.3333 39.1667V34.5Z"/>
</mask>
<path d="M17.3333 34.5C17.3333 34.2239 17.1094 34 16.8333 34H9.33325C9.05711 34 8.83325 34.2239 8.83325 34.5V39.1667C8.83325 39.4428 9.05711 39.6667 9.33325 39.6667H16.8333C17.1094 39.6667 17.3333 39.4428 17.3333 39.1667V34.5Z" fill="white"/>
<path d="M17.3333 34H8.83325H17.3333ZM8.83325 39.6667H17.3333H8.83325ZM16.8333 39.6667C18.214 39.6667 19.3333 38.5474 19.3333 37.1667V36.5C19.3333 35.1193 18.214 34 16.8333 34H15.3333C15.3333 34 15.3333 34.2239 15.3333 34.5V39.1667C15.3333 39.4428 15.3333 39.6667 15.3333 39.6667H16.8333ZM8.83325 34V39.6667V34Z" fill="#D28DB9" mask="url(#path-7-inside-3_181_213)"/>
<mask id="path-9-inside-4_181_213" fill="white">
<path d="M17.3333 45.8334C17.3333 45.5572 17.1094 45.3334 16.8333 45.3334H9.33325C9.05711 45.3334 8.83325 45.5572 8.83325 45.8334V50.5C8.83325 50.7762 9.05711 51 9.33325 51H16.8333C17.1094 51 17.3333 50.7762 17.3333 50.5V45.8334Z"/>
</mask>
<path d="M17.3333 45.8334C17.3333 45.5572 17.1094 45.3334 16.8333 45.3334H9.33325C9.05711 45.3334 8.83325 45.5572 8.83325 45.8334V50.5C8.83325 50.7762 9.05711 51 9.33325 51H16.8333C17.1094 51 17.3333 50.7762 17.3333 50.5V45.8334Z" fill="white"/>
<path d="M17.3333 45.3334H8.83325H17.3333ZM8.83325 51H17.3333H8.83325ZM16.8333 51C18.214 51 19.3333 49.8808 19.3333 48.5V47.8334C19.3333 46.4527 18.214 45.3334 16.8333 45.3334H15.3333C15.3333 45.3334 15.3333 45.5572 15.3333 45.8334V50.5C15.3333 50.7762 15.3333 51 15.3333 51H16.8333ZM8.83325 45.3334V51V45.3334Z" fill="#D28DB9" mask="url(#path-9-inside-4_181_213)"/>
<path d="M17.3333 17C17.3333 12.3056 21.1388 8.5 25.8333 8.5H42.8333C47.5277 8.5 51.3333 12.3056 51.3333 17V62.3333H17.3333V17Z" fill="white"/>
<path d="M39.9999 51H28.6666C27.1018 51 25.8333 52.2685 25.8333 53.8333V62.3333H42.8333V53.8333C42.8333 52.2685 41.5647 51 39.9999 51Z" fill="#D28DB9"/>
<path d="M34.3333 51V62.3333" stroke="white" stroke-width="2.5"/>
<path d="M30.0832 18.4164H34.3333M34.3333 18.4164H38.5832M34.3333 18.4164V14.1666M34.3333 18.4164V22.6666" stroke="#D28DB9" stroke-width="2.5" stroke-linecap="round" stroke-linejoin="round"/>
<path d="M23 28.8334C23 28.5572 23.2239 28.3334 23.5 28.3334H31C31.2761 28.3334 31.5 28.5572 31.5 28.8334V33.5C31.5 33.7762 31.2761 34 31 34H23.5C23.2239 34 23 33.7762 23 33.5V28.8334Z" fill="#D28DB9"/>
<path d="M37.1667 28.8334C37.1667 28.5572 37.3906 28.3334 37.6667 28.3334H45.1667C45.4429 28.3334 45.6667 28.5572 45.6667 28.8334V33.5C45.6667 33.7762 45.4429 34 45.1667 34H37.6667C37.3906 34 37.1667 33.7762 37.1667 33.5V28.8334Z" fill="#D28DB9"/>
<path d="M23 40.1666C23 39.8905 23.2239 39.6666 23.5 39.6666H31C31.2761 39.6666 31.5 39.8905 31.5 40.1666V44.8333C31.5 45.1094 31.2761 45.3333 31 45.3333H23.5C23.2239 45.3333 23 45.1094 23 44.8333V40.1666Z" fill="#D28DB9"/>
<path d="M37.1667 40.1666C37.1667 39.8905 37.3906 39.6666 37.6667 39.6666H45.1667C45.4429 39.6666 45.6667 39.8905 45.6667 40.1666V44.8333C45.6667 45.1094 45.4429 45.3333 45.1667 45.3333H37.6667C37.3906 45.3333 37.1667 45.1094 37.1667 44.8333V40.1666Z" fill="#D28DB9"/>
</svg>
