<svg width="69" height="68" viewBox="0 0 69 68" fill="none" xmlns="http://www.w3.org/2000/svg">
<path d="M60.1667 56.6667V28.3334H9.16675V56.6667C9.16675 58.2315 10.4353 59.5 12.0001 59.5H57.3334C58.8982 59.5 60.1667 58.2315 60.1667 56.6667Z" fill="#6BC6B5"/>
<path d="M39.8333 39.6667H29.5C29.2239 39.6667 29 39.8906 29 40.1667V59.0001C29 59.2762 29.2239 59.5001 29.5 59.5001H39.8333C40.1095 59.5001 40.3333 59.2762 40.3333 59.0001V40.1667C40.3333 39.8906 40.1095 39.6667 39.8333 39.6667Z" fill="white"/>
<path d="M29 49.5834H33.25" stroke="#6BC6B5" stroke-width="2.5" stroke-linejoin="round"/>
<path d="M26.1667 28.3334H8.50421C6.30188 28.3334 4.94156 25.9308 6.07465 24.0423L11.1746 15.5423C11.6867 14.6889 12.609 14.1667 13.6042 14.1667H26.1667H43.1667H55.7291C56.7244 14.1667 57.6467 14.6889 58.1587 15.5423L63.2587 24.0423C64.3918 25.9308 63.0315 28.3334 60.8291 28.3334H43.1667H26.1667Z" fill="white"/>
<rect x="14.8333" y="39.6667" width="8.5" height="11.3333" rx="0.5" fill="white"/>
<rect x="46" y="39.6667" width="8.5" height="11.3333" rx="0.5" fill="white"/>
<path d="M34.6667 32.4167C40.8338 32.4167 45.8333 27.4172 45.8333 21.25C45.8333 15.0829 40.8338 10.0834 34.6667 10.0834C28.4995 10.0834 23.5 15.0829 23.5 21.25C23.5 27.4172 28.4995 32.4167 34.6667 32.4167Z" fill="white" stroke="#6BC6B5" stroke-width="2.5"/>
<path d="M30.4167 21.2498H34.6667M34.6667 21.2498H38.9167M34.6667 21.2498V17M34.6667 21.2498V25.5" stroke="#6BC6B5" stroke-width="2.5" stroke-linecap="round" stroke-linejoin="round"/>
</svg>
